# Blender v2.79 (sub 0) OBJ File: ''
# www.blender.org
mtllib cube3.mtl
o cube3
v 1.239274 3.143735 -4.714835
v 1.501680 0.901694 -3.010605
v 1.393154 2.880092 -2.738269
v 3.230390 3.271943 -4.852747
v 1.347800 1.165338 -4.987171
v 3.384270 3.008299 -2.876181
v 3.338916 1.293545 -5.125082
v 3.492796 1.029902 -3.148516
vt 1.000000 0.000000
vt 0.000000 1.000000
vt 0.000000 0.000000
vt 1.000000 0.000000
vt 0.000000 1.000000
vt 0.000000 0.000000
vt 1.000000 0.000000
vt 0.000000 1.000000
vt 0.000000 0.000000
vt 1.000000 0.000000
vt 0.000000 1.000000
vt 0.000000 0.000000
vt 1.000000 0.000000
vt 0.000000 0.000000
vt 0.000000 1.000000
vt 1.000000 1.000000
vt 1.000000 1.000000
vt 1.000000 1.000000
vt 1.000000 1.000000
vt 1.000000 1.000000
vn -0.9956 -0.0641 0.0690
vn -0.0769 0.1318 -0.9883
vn 0.9956 0.0641 -0.0690
vn 0.0769 -0.1318 0.9883
vn 0.0543 -0.9892 -0.1362
vn -0.0543 0.9892 0.1362
usemtl Material.003
s 1
f 1/1/1 2/2/1 3/3/1
f 4/4/2 5/5/2 1/6/2
f 6/7/3 7/8/3 4/9/3
f 3/10/4 8/11/4 6/12/4
f 5/13/5 8/11/5 2/14/5
f 4/4/6 3/15/6 6/12/6
f 1/1/1 5/16/1 2/2/1
f 4/4/2 7/17/2 5/5/2
f 6/7/3 8/18/3 7/8/3
f 3/10/4 2/19/4 8/11/4
f 5/13/5 7/17/5 8/11/5
f 4/4/6 1/20/6 3/15/6
