# Blender v2.79 (sub 0) OBJ File: 'cube2.obj'
# www.blender.org
mtllib cube.mtl
o Cube
v 0.955167 -0.823585 -1.115941
v 0.955167 -0.823585 0.884059
v -1.044833 -0.919370 0.884059
v -1.044832 -0.823585 -1.115941
v 0.955168 1.176415 -1.115940
v 0.955167 1.176415 0.884060
v -1.044833 1.176415 0.884059
v -1.044833 1.176415 -1.115941
vt 1.086253 0.926437
vt -0.086254 0.073563
vt 1.086253 0.073563
vt 1.086253 0.926437
vt -0.086254 0.073563
vt 1.086253 0.073563
vt 1.086253 0.926437
vt -0.086254 0.073563
vt 1.086253 0.073563
vt -0.086253 0.926437
vt -0.086254 0.073563
vt 1.086253 0.926437
vt 1.086253 0.073563
vt 1.086253 0.926437
vt -0.086254 0.073563
vt -0.086253 0.926437
vt -0.086253 0.926437
vt 1.086253 0.926437
vt -0.086253 0.926437
vt -0.086253 0.926437
vn 0.0000 -1.0000 0.0000
vn 0.0000 1.0000 0.0000
vn 1.0000 -0.0000 0.0000
vn -0.0000 0.0000 1.0000
vn -1.0000 -0.0000 -0.0000
vn 0.0000 0.0000 -1.0000
vn 0.0478 -0.9977 -0.0478
usemtl Material
s off
f 2/1/1 4/2/1 1/3/1
f 8/4/2 6/5/2 5/6/2
f 5/7/3 2/8/3 1/3/3
f 2/9/4 7/10/4 3/11/4
f 7/12/5 4/2/5 3/13/5
f 1/14/6 8/15/6 5/6/6
f 2/1/7 3/16/7 4/2/7
f 8/4/2 7/10/2 6/5/2
f 5/7/3 6/17/3 2/8/3
f 2/9/4 6/18/4 7/10/4
f 7/12/5 8/19/5 4/2/5
f 1/14/6 4/20/6 8/15/6
