# Blender v2.79 (sub 0) OBJ File: 'sceneblend.blend'
# www.blender.org
mtllib cubeS.mtl
o Cube_Cube.002
v 5.262444 5.129060 -2.040682
v 4.727435 4.713642 -0.581870
v 5.034207 5.689970 -1.077999
v 6.333549 4.968954 -1.693454
v 4.955671 4.152733 -1.544553
v 6.105314 5.529863 -0.730771
v 6.026777 3.992626 -1.197325
v 5.798541 4.553536 -0.234642
vt 1.000000 0.000000
vt 0.000000 1.000000
vt 0.000000 0.000000
vt 1.000000 0.000000
vt 0.000000 1.000000
vt 0.000000 0.000000
vt 1.000000 0.000000
vt 0.000000 1.000000
vt 0.000000 0.000000
vt 1.000000 0.000000
vt 0.000000 1.000000
vt 0.000000 0.000000
vt 1.000000 0.000000
vt 0.000000 0.000000
vt 0.000000 1.000000
vt 1.000000 1.000000
vt 1.000000 1.000000
vt 1.000000 1.000000
vt 1.000000 1.000000
vt 1.000000 1.000000
vn -0.9418 0.1408 -0.3053
vn 0.2007 -0.4932 -0.8465
vn 0.9418 -0.1408 0.3053
vn -0.2007 0.4932 0.8465
vn -0.2697 -0.8585 0.4362
vn 0.2697 0.8585 -0.4362
usemtl Material.002
s 1
f 1/1/1 2/2/1 3/3/1
f 4/4/2 5/5/2 1/6/2
f 6/7/3 7/8/3 4/9/3
f 3/10/4 8/11/4 6/12/4
f 5/13/5 8/11/5 2/14/5
f 4/4/6 3/15/6 6/12/6
f 1/1/1 5/16/1 2/2/1
f 4/4/2 7/17/2 5/5/2
f 6/7/3 8/18/3 7/8/3
f 3/10/4 2/19/4 8/11/4
f 5/13/5 7/17/5 8/11/5
f 4/4/6 1/20/6 3/15/6
