# Blender v2.79 (sub 0) OBJ File: ''
# www.blender.org
mtllib window.mtl
o cube.000
v -1.500000 0.188878 3.641155
v 1.500000 0.188878 3.641155
v -1.500000 0.188843 3.643155
v 1.500000 0.188843 3.643155
v -1.500000 3.188387 3.695512
v 1.500000 3.188387 3.695512
v -1.500000 3.188422 3.693513
v 1.500000 3.188422 3.693513
vt 0.000000 0.000000
vt 1.000000 0.000000
vt 0.000000 1.000000
vt 1.000000 1.000000
vt 0.000000 0.000000
vt 1.000000 0.000000
vt 0.000000 1.000000
vt 1.000000 1.000000
vt 1.000000 1.000000
vt 0.000000 1.000000
vt 1.000000 0.000000
vt 0.000000 0.000000
vt 0.000000 0.000000
vt 1.000000 0.000000
vt 0.000000 1.000000
vt 1.000000 1.000000
vt 0.000000 0.000000
vt 0.000000 1.000000
vt 1.000000 0.000000
vt 1.000000 1.000000
vn 0.0000 -0.9998 -0.0175
vn 0.0000 -0.0175 0.9998
vn 0.0000 0.9998 0.0175
vn 0.0000 0.9998 0.0178
vn 0.0000 0.0175 -0.9998
vn 1.0000 0.0000 0.0000
vn -1.0000 0.0000 0.0000
usemtl cube.000
s 1
f 1/1/1 2/2/1 3/3/1
f 3/3/1 2/2/1 4/4/1
f 3/5/2 4/6/2 5/7/2
f 5/7/2 4/6/2 6/8/2
f 5/9/3 6/10/4 7/11/3
f 7/11/3 6/10/4 8/12/4
f 7/13/5 8/14/5 1/15/5
f 1/15/5 8/14/5 2/16/5
f 2/17/6 8/14/6 4/18/6
f 4/18/6 8/14/6 6/8/6
f 7/13/7 1/19/7 5/7/7
f 5/7/7 1/19/7 3/20/7
