# Blender v2.79 (sub 0) OBJ File: ''
# www.blender.org
mtllib window.mtl
o cube.000
v -1.500000 -1.499754 -0.027179
v 1.500000 -1.499754 -0.027179
v -1.500000 -1.499789 -0.025179
v 1.500000 -1.499789 -0.025179
v -1.500000 1.499754 0.027179
v 1.500000 1.499754 0.027179
v -1.500000 1.499789 0.025180
v 1.500000 1.499789 0.025180
vt 0.000000 0.000000
vt 1.000000 0.000000
vt 0.000000 1.000000
vt 1.000000 1.000000
vt 0.000000 0.000000
vt 1.000000 0.000000
vt 0.000000 1.000000
vt 1.000000 1.000000
vt 1.000000 1.000000
vt 0.000000 1.000000
vt 1.000000 0.000000
vt 0.000000 0.000000
vt 0.000000 0.000000
vt 1.000000 0.000000
vt 0.000000 1.000000
vt 1.000000 1.000000
vt 0.000000 0.000000
vt 0.000000 1.000000
vt 1.000000 0.000000
vt 1.000000 1.000000
vn 0.0000 -0.9998 -0.0175
vn 0.0000 -0.9998 -0.0176
vn 0.0000 -0.0175 0.9998
vn -0.0000 0.9999 0.0172
vn -0.0000 0.9998 0.0181
vn 0.0000 0.0175 -0.9998
vn 1.0000 0.0000 0.0000
vn -1.0000 0.0000 0.0000
usemtl cube.000
s 1
f 1/1/1 2/2/2 3/3/1
f 3/3/1 2/2/2 4/4/2
f 3/5/3 4/6/3 5/7/3
f 5/7/3 4/6/3 6/8/3
f 5/9/4 6/10/5 7/11/4
f 7/11/4 6/10/5 8/12/5
f 7/13/6 8/14/6 1/15/6
f 1/15/6 8/14/6 2/16/6
f 2/17/7 8/14/7 4/18/7
f 4/18/7 8/14/7 6/8/7
f 7/13/8 1/19/8 5/7/8
f 5/7/8 1/19/8 3/20/8
